<svg id="visual" viewBox="0 0 3840 2160" width="3840" height="2160" xmlns="http://www.w3.org/2000/svg" xmlns:xlink="http://www.w3.org/1999/xlink" version="1.1"><g stroke-width="1" stroke-linejoin="bevel"><path d="M1757.7 1037L1295 1046L1700.7 1395Z" fill="#ff6da4" stroke="#ff6da4"></path><path d="M1295 1046L1318 1432L1700.7 1395Z" fill="#fd9ec1" stroke="#fd9ec1"></path><path d="M1757.7 1037L1697.7 677L1295 1046Z" fill="#ff7cad" stroke="#ff7cad"></path><path d="M1697.7 677L1328 669L1295 1046Z" fill="#fe91b9" stroke="#fe91b9"></path><path d="M868.3 1408L1326 1752L1318 1432Z" fill="#fd9ec1" stroke="#fd9ec1"></path><path d="M1318 1432L1326 1752L1700.7 1395Z" fill="#fe8ab5" stroke="#fe8ab5"></path><path d="M1326 1752L1720.7 1772L1700.7 1395Z" fill="#fe83b1" stroke="#fe83b1"></path><path d="M2146.3 1458L2169.3 1065L1757.7 1037Z" fill="#fd9ec1" stroke="#fd9ec1"></path><path d="M2146.3 1458L1757.7 1037L1700.7 1395Z" fill="#fd97bd" stroke="#fd97bd"></path><path d="M1757.7 1037L2093.3 667L1697.7 677Z" fill="#fe83b1" stroke="#fe83b1"></path><path d="M803.3 680L863.3 1128L1295 1046Z" fill="#ff65a0" stroke="#ff65a0"></path><path d="M1295 1046L863.3 1128L1318 1432Z" fill="#ff65a0" stroke="#ff65a0"></path><path d="M2082.3 1749L2146.3 1458L1700.7 1395Z" fill="#fe83b1" stroke="#fe83b1"></path><path d="M863.3 1128L868.3 1408L1318 1432Z" fill="#fda4c5" stroke="#fda4c5"></path><path d="M2169.3 1065L2093.3 667L1757.7 1037Z" fill="#fcaac9" stroke="#fcaac9"></path><path d="M1697.7 677L1725.7 390L1328 669Z" fill="#fe83b1" stroke="#fe83b1"></path><path d="M1720.7 1772L2082.3 1749L1700.7 1395Z" fill="#fe83b1" stroke="#fe83b1"></path><path d="M2093.3 667L1725.7 390L1697.7 677Z" fill="#fcaac9" stroke="#fcaac9"></path><path d="M1725.7 390L1260 348L1328 669Z" fill="#fcaac9" stroke="#fcaac9"></path><path d="M1328 669L803.3 680L1295 1046Z" fill="#fcaac9" stroke="#fcaac9"></path><path d="M1260 348L803.3 680L1328 669Z" fill="#fe91b9" stroke="#fe91b9"></path><path d="M863.3 1128L458.7 1414L868.3 1408Z" fill="#fe8ab5" stroke="#fe8ab5"></path><path d="M868.3 1408L864.3 1810L1326 1752Z" fill="#ff75a9" stroke="#ff75a9"></path><path d="M1326 1752L1659.7 2160L1720.7 1772Z" fill="#fe8ab5" stroke="#fe8ab5"></path><path d="M449.7 1757L864.3 1810L868.3 1408Z" fill="#fd97bd" stroke="#fd97bd"></path><path d="M1280 2160L1659.7 2160L1326 1752Z" fill="#ff65a0" stroke="#ff65a0"></path><path d="M1720.7 1772L2119.3 2160L2082.3 1749Z" fill="#fd97bd" stroke="#fd97bd"></path><path d="M2591 377L2088.3 373L2093.3 667Z" fill="#fe83b1" stroke="#fe83b1"></path><path d="M2093.3 667L2088.3 373L1725.7 390Z" fill="#fda4c5" stroke="#fda4c5"></path><path d="M1725.7 390L1700.7 0L1260 348Z" fill="#fe8ab5" stroke="#fe8ab5"></path><path d="M864.3 1810L1280 2160L1326 1752Z" fill="#fe83b1" stroke="#fe83b1"></path><path d="M2146.3 1458L2515 1451L2169.3 1065Z" fill="#ff6da4" stroke="#ff6da4"></path><path d="M2169.3 1065L2551 734L2093.3 667Z" fill="#ff65a0" stroke="#ff65a0"></path><path d="M2510 1838L2515 1451L2146.3 1458Z" fill="#ff65a0" stroke="#ff65a0"></path><path d="M2510 1838L2146.3 1458L2082.3 1749Z" fill="#fcaac9" stroke="#fcaac9"></path><path d="M2515 1451L2550 1051L2169.3 1065Z" fill="#fe91b9" stroke="#fe91b9"></path><path d="M377.7 1035L458.7 1414L863.3 1128Z" fill="#fd97bd" stroke="#fd97bd"></path><path d="M867.3 0L845.3 320L1260 348Z" fill="#ff6da4" stroke="#ff6da4"></path><path d="M1260 348L845.3 320L803.3 680Z" fill="#ff7cad" stroke="#ff7cad"></path><path d="M803.3 680L377.7 1035L863.3 1128Z" fill="#ff75a9" stroke="#ff75a9"></path><path d="M2550 1051L2551 734L2169.3 1065Z" fill="#fe83b1" stroke="#fe83b1"></path><path d="M1659.7 2160L2119.3 2160L1720.7 1772Z" fill="#fd97bd" stroke="#fd97bd"></path><path d="M377.7 744L377.7 1035L803.3 680Z" fill="#fda4c5" stroke="#fda4c5"></path><path d="M2119.3 2160L2510 1838L2082.3 1749Z" fill="#fe8ab5" stroke="#fe8ab5"></path><path d="M2515 1451L2940.7 1091L2550 1051Z" fill="#fcaac9" stroke="#fcaac9"></path><path d="M441.7 2160L851.3 2160L864.3 1810Z" fill="#fe8ab5" stroke="#fe8ab5"></path><path d="M864.3 1810L851.3 2160L1280 2160Z" fill="#ff65a0" stroke="#ff65a0"></path><path d="M2177.3 0L1700.7 0L2088.3 373Z" fill="#fda4c5" stroke="#fda4c5"></path><path d="M2088.3 373L1700.7 0L1725.7 390Z" fill="#ff65a0" stroke="#ff65a0"></path><path d="M1700.7 0L1308 0L1260 348Z" fill="#ff75a9" stroke="#ff75a9"></path><path d="M0 1433L449.7 1757L458.7 1414Z" fill="#ff7cad" stroke="#ff7cad"></path><path d="M458.7 1414L449.7 1757L868.3 1408Z" fill="#ff7cad" stroke="#ff7cad"></path><path d="M468.7 370L377.7 744L803.3 680Z" fill="#ff6da4" stroke="#ff6da4"></path><path d="M3027.7 737L2591 377L2551 734Z" fill="#ff65a0" stroke="#ff65a0"></path><path d="M2551 734L2591 377L2093.3 667Z" fill="#fe91b9" stroke="#fe91b9"></path><path d="M2940.7 1091L2551 734L2550 1051Z" fill="#fda4c5" stroke="#fda4c5"></path><path d="M845.3 320L468.7 370L803.3 680Z" fill="#fd97bd" stroke="#fd97bd"></path><path d="M478.7 0L468.7 370L845.3 320Z" fill="#fe91b9" stroke="#fe91b9"></path><path d="M2591 377L2177.3 0L2088.3 373Z" fill="#ff75a9" stroke="#ff75a9"></path><path d="M1308 0L867.3 0L1260 348Z" fill="#ff6da4" stroke="#ff6da4"></path><path d="M3020.7 1435L2940.7 1091L2515 1451Z" fill="#ff75a9" stroke="#ff75a9"></path><path d="M2119.3 2160L2564 2160L2510 1838Z" fill="#fe8ab5" stroke="#fe8ab5"></path><path d="M3026.7 1754L3020.7 1435L2515 1451Z" fill="#fda4c5" stroke="#fda4c5"></path><path d="M449.7 1757L441.7 2160L864.3 1810Z" fill="#ff7cad" stroke="#ff7cad"></path><path d="M0 1850L441.7 2160L449.7 1757Z" fill="#fe83b1" stroke="#fe83b1"></path><path d="M3026.7 1754L2515 1451L2510 1838Z" fill="#fe8ab5" stroke="#fe8ab5"></path><path d="M0 675L0 1132L377.7 1035Z" fill="#fe83b1" stroke="#fe83b1"></path><path d="M377.7 1035L0 1132L458.7 1414Z" fill="#fda4c5" stroke="#fda4c5"></path><path d="M0 675L377.7 1035L377.7 744Z" fill="#ff7cad" stroke="#ff7cad"></path><path d="M0 1132L0 1433L458.7 1414Z" fill="#fda4c5" stroke="#fda4c5"></path><path d="M2940.7 1091L3027.7 737L2551 734Z" fill="#fe91b9" stroke="#fe91b9"></path><path d="M2591 377L2560 0L2177.3 0Z" fill="#ff7cad" stroke="#ff7cad"></path><path d="M3381.3 759L3027.7 737L3434.3 1101Z" fill="#ff7cad" stroke="#ff7cad"></path><path d="M2992.7 315L2560 0L2591 377Z" fill="#fd97bd" stroke="#fd97bd"></path><path d="M867.3 0L478.7 0L845.3 320Z" fill="#ff65a0" stroke="#ff65a0"></path><path d="M468.7 370L0 675L377.7 744Z" fill="#fd9ec1" stroke="#fd9ec1"></path><path d="M2564 2160L3026.7 1754L2510 1838Z" fill="#fd9ec1" stroke="#fd9ec1"></path><path d="M3434.3 1101L3027.7 737L2940.7 1091Z" fill="#fcaac9" stroke="#fcaac9"></path><path d="M0 328L0 675L468.7 370Z" fill="#fd9ec1" stroke="#fd9ec1"></path><path d="M0 1433L0 1850L449.7 1757Z" fill="#fd9ec1" stroke="#fd9ec1"></path><path d="M3027.7 737L2992.7 315L2591 377Z" fill="#ff75a9" stroke="#ff75a9"></path><path d="M478.7 0L0 328L468.7 370Z" fill="#ff75a9" stroke="#ff75a9"></path><path d="M2564 2160L3025.7 2160L3026.7 1754Z" fill="#ff75a9" stroke="#ff75a9"></path><path d="M0 1850L0 2160L441.7 2160Z" fill="#fd97bd" stroke="#fd97bd"></path><path d="M3434.3 317L2976.7 0L2992.7 315Z" fill="#fcaac9" stroke="#fcaac9"></path><path d="M2992.7 315L2976.7 0L2560 0Z" fill="#fe8ab5" stroke="#fe8ab5"></path><path d="M3434.3 1101L3020.7 1435L3464.3 1413Z" fill="#fe91b9" stroke="#fe91b9"></path><path d="M3434.3 1101L2940.7 1091L3020.7 1435Z" fill="#fe8ab5" stroke="#fe8ab5"></path><path d="M3027.7 737L3434.3 317L2992.7 315Z" fill="#ff6da4" stroke="#ff6da4"></path><path d="M3464.3 1413L3020.7 1435L3026.7 1754Z" fill="#ff75a9" stroke="#ff75a9"></path><path d="M478.7 0L0 0L0 328Z" fill="#ff65a0" stroke="#ff65a0"></path><path d="M3459.3 1810L3464.3 1413L3026.7 1754Z" fill="#fda4c5" stroke="#fda4c5"></path><path d="M3025.7 2160L3459.3 1810L3026.7 1754Z" fill="#fe91b9" stroke="#fe91b9"></path><path d="M3840 673L3381.3 759L3434.3 1101Z" fill="#ff75a9" stroke="#ff75a9"></path><path d="M3840 673L3434.3 317L3381.3 759Z" fill="#fe91b9" stroke="#fe91b9"></path><path d="M3381.3 759L3434.3 317L3027.7 737Z" fill="#fe83b1" stroke="#fe83b1"></path><path d="M3025.7 2160L3432.3 2160L3459.3 1810Z" fill="#fd9ec1" stroke="#fd9ec1"></path><path d="M3840 0L3461.3 0L3434.3 317Z" fill="#ff6da4" stroke="#ff6da4"></path><path d="M3434.3 317L3461.3 0L2976.7 0Z" fill="#fda4c5" stroke="#fda4c5"></path><path d="M3840 1482L3840 1129L3464.3 1413Z" fill="#fe91b9" stroke="#fe91b9"></path><path d="M3464.3 1413L3840 1129L3434.3 1101Z" fill="#ff65a0" stroke="#ff65a0"></path><path d="M3840 1482L3464.3 1413L3459.3 1810Z" fill="#fe91b9" stroke="#fe91b9"></path><path d="M3840 1808L3840 1482L3459.3 1810Z" fill="#fe83b1" stroke="#fe83b1"></path><path d="M3840 1129L3840 673L3434.3 1101Z" fill="#ff65a0" stroke="#ff65a0"></path><path d="M3840 2160L3840 1808L3459.3 1810Z" fill="#fd97bd" stroke="#fd97bd"></path><path d="M3840 673L3840 368L3434.3 317Z" fill="#fd9ec1" stroke="#fd9ec1"></path><path d="M3432.3 2160L3840 2160L3459.3 1810Z" fill="#ff6da4" stroke="#ff6da4"></path><path d="M3840 368L3840 0L3434.3 317Z" fill="#fd97bd" stroke="#fd97bd"></path></g></svg>